# xmcd
#
# Track frame offsets: 
#        150
#        21225
#        44063
#        67538
#        82425
#        111516
#        137288
#        164888
#        190013
#        233147
#        259387
#        291562
#        310650
#
# Disc length: 4602 seconds
#
# Revision: 0
# Processed by: cddbd v1.5.2PL0 Copyright (c) Steve Scherf et al.
# Submitted via: ExactAudioCopyFreeDBPlugin 1.0
#
DISCID=c411f80d
DTITLE=Pigeons Playing Ping Pong - Psychology
DYEAR=2014
DGENRE=Funk
TTITLE0=F.U.
TTITLE1=Melting Lights
TTITLE2=Julia
TTITLE3=Schwanthem
TTITLE4=Zydeko
TTITLE5=Time to Ride
TTITLE6=Sunny Day
TTITLE7=Moonwalk
TTITLE8=Horizon
TTITLE9=Lightning
TTITLE10=White Night
TTITLE11=Live Life
TTITLE12=Upfunk
EXTD=
EXTT0=
EXTT1=
EXTT2=
EXTT3=
EXTT4=
EXTT5=
EXTT6=
EXTT7=
EXTT8=
EXTT9=
EXTT10=
EXTT11=
EXTT12=
PLAYORDER=
